<svg width="28" height="29" viewBox="0 0 28 29" fill="none" xmlns="http://www.w3.org/2000/svg">
<path d="M25.2354 19.7597H8.95225L9.76982 18.1094L23.3542 18.085C23.8136 18.085 24.2073 17.7598 24.2894 17.31L26.1706 6.87433C26.2198 6.60064 26.146 6.31881 25.9655 6.10473C25.8763 5.99937 25.7651 5.9145 25.6395 5.85601C25.5139 5.79752 25.377 5.7668 25.2382 5.766L7.95693 5.70909L7.80928 5.02079C7.71631 4.58179 7.31709 4.26202 6.86318 4.26202H2.63857C2.38258 4.26202 2.13707 4.36281 1.95605 4.5422C1.77503 4.72159 1.67334 4.9649 1.67334 5.21861C1.67334 5.47231 1.77503 5.71562 1.95605 5.89501C2.13707 6.0744 2.38258 6.17519 2.63857 6.17519H6.08115L6.72646 9.21565L8.31514 16.8385L6.26982 20.1472C6.16361 20.2893 6.09963 20.458 6.08514 20.6342C6.07064 20.8105 6.1062 20.9872 6.18779 21.1445C6.35186 21.4669 6.68271 21.6702 7.04912 21.6702H8.76631C8.40023 22.1521 8.20249 22.739 8.20303 23.3422C8.20303 24.8759 9.46084 26.1225 11.0085 26.1225C12.5562 26.1225 13.814 24.8759 13.814 23.3422C13.814 22.7379 13.6116 22.1498 13.2507 21.6702H17.6558C17.2897 22.1521 17.0919 22.739 17.0925 23.3422C17.0925 24.8759 18.3503 26.1225 19.8979 26.1225C21.4456 26.1225 22.7034 24.8759 22.7034 23.3422C22.7034 22.7379 22.5011 22.1498 22.1401 21.6702H25.2382C25.7687 21.6702 26.2034 21.242 26.2034 20.7136C26.2018 20.4602 26.0992 20.2176 25.9178 20.0389C25.7365 19.8602 25.4912 19.7599 25.2354 19.7597ZM8.35889 7.59516L24.1034 7.64664L22.5612 16.2044L10.1937 16.2261L8.35889 7.59516ZM11.0085 24.1985C10.5327 24.1985 10.1444 23.8137 10.1444 23.3422C10.1444 22.8706 10.5327 22.4858 11.0085 22.4858C11.4843 22.4858 11.8726 22.8706 11.8726 23.3422C11.8726 23.5693 11.7815 23.7871 11.6195 23.9477C11.4574 24.1083 11.2377 24.1985 11.0085 24.1985ZM19.8979 24.1985C19.4222 24.1985 19.0339 23.8137 19.0339 23.3422C19.0339 22.8706 19.4222 22.4858 19.8979 22.4858C20.3737 22.4858 20.762 22.8706 20.762 23.3422C20.762 23.5693 20.671 23.7871 20.5089 23.9477C20.3469 24.1083 20.1271 24.1985 19.8979 24.1985Z" fill="black"/>
</svg>
