<svg width="24" height="19" viewBox="0 0 24 19" fill="none" xmlns="http://www.w3.org/2000/svg">
<path d="M21.3333 9.61368V3.83264H23.6666V10.7699H21.3333M21.3333 15.3947H23.6666V13.0823H21.3333M9.66659 10.7699C12.7816 10.7699 18.9999 12.3192 18.9999 15.3947V18.8633H0.333252V15.3947C0.333252 12.3192 6.55159 10.7699 9.66659 10.7699ZM9.66659 0.364014C10.9043 0.364014 12.0912 0.851271 12.9664 1.7186C13.8416 2.58592 14.3333 3.76226 14.3333 4.98885C14.3333 6.21543 13.8416 7.39177 12.9664 8.2591C12.0912 9.12642 10.9043 9.61368 9.66659 9.61368C8.42891 9.61368 7.24192 9.12642 6.36675 8.2591C5.49158 7.39177 4.99992 6.21543 4.99992 4.98885C4.99992 3.76226 5.49158 2.58592 6.36675 1.7186C7.24192 0.851271 8.42891 0.364014 9.66659 0.364014ZM9.66659 12.9667C6.20159 12.9667 2.54992 14.6547 2.54992 15.3947V16.6665H16.7833V15.3947C16.7833 14.6547 13.1316 12.9667 9.66659 12.9667ZM9.66659 2.56081C9.01681 2.56081 8.39364 2.81662 7.93417 3.27196C7.47471 3.72731 7.21659 4.34489 7.21659 4.98885C7.21659 5.6328 7.47471 6.25038 7.93417 6.70573C8.39364 7.16107 9.01681 7.41688 9.66659 7.41688C10.3164 7.41688 10.9395 7.16107 11.399 6.70573C11.8585 6.25038 12.1166 5.6328 12.1166 4.98885C12.1166 4.34489 11.8585 3.72731 11.399 3.27196C10.9395 2.81662 10.3164 2.56081 9.66659 2.56081Z" fill="black"/>
</svg>
